<svg xmlns="http://www.w3.org/2000/svg" viewBox="0 0 400 680" role="img" aria-label="Card back">
	<defs>
		<filter id="grain" x="0%" y="0%" width="100%" height="100%">
			<feTurbulence
				type="fractalNoise"
				baseFrequency="0.85"
				numOctaves="4"
				stitchTiles="stitch"
				result="noise"
			/>
			<feColorMatrix type="saturate" values="0" in="noise" result="mono" />
			<feBlend in="SourceGraphic" in2="mono" mode="multiply" />
		</filter>
		<radialGradient id="field" cx="50%" cy="46%" r="72%">
			<stop offset="0%" stop-color="#ead9b0" />
			<stop offset="42%" stop-color="#b89a4a" />
			<stop offset="100%" stop-color="#8f7340" />
		</radialGradient>
		<pattern id="dots" width="12" height="12" patternUnits="userSpaceOnUse">
			<circle cx="6" cy="6" r="1.1" fill="#1e1e1e" opacity="0.18" />
		</pattern>
	</defs>

	<g filter="url(#grain)">
		<rect width="400" height="680" fill="#efe4d2" />
		<rect x="16" y="16" width="368" height="648" fill="url(#field)" stroke="#1e1e1e" stroke-width="4" />
		<rect x="28" y="28" width="344" height="624" fill="none" stroke="#1e1e1e" stroke-width="2" />
		<rect x="40" y="40" width="320" height="600" fill="url(#dots)" />

		<g transform="translate(200 330)">
			<circle r="168" fill="none" stroke="#1e1e1e" stroke-width="2.5" />
			<circle r="148" fill="#efe4d2" fill-opacity="0.35" stroke="#1e1e1e" stroke-width="2" />
			<circle r="118" fill="none" stroke="#1e1e1e" stroke-width="1.5" />
			<circle r="92" fill="#dcc99a" stroke="#1e1e1e" stroke-width="2" />

			<g fill="#1e1e1e">
				<path d="M0 -78 L17 -24 L74 -24 L27 9 L44 63 L0 30 L-44 63 L-27 9 L-74 -24 L-17 -24 Z" />
			</g>
			<g fill="#732f3a" transform="rotate(45)">
				<path d="M0 -54 L12 -17 L51 -17 L19 6 L31 44 L0 21 L-31 44 L-19 6 L-51 -17 L-12 -17 Z" />
			</g>
			<g fill="#1b3d34" transform="rotate(22.5)">
				<path d="M0 -54 L12 -17 L51 -17 L19 6 L31 44 L0 21 L-31 44 L-19 6 L-51 -17 L-12 -17 Z" opacity="0.9" />
			</g>

			<circle r="18" fill="#732f3a" stroke="#1e1e1e" stroke-width="2" />
			<circle r="7" fill="#efe4d2" stroke="#1e1e1e" stroke-width="1.5" />
		</g>

		<g stroke="#1e1e1e" stroke-width="2" fill="none">
			<path d="M200 72 L200 108" />
			<path d="M200 552 L200 588" />
			<path d="M72 330 L108 330" />
			<path d="M292 330 L328 330" />
			<path d="M110 110 L134 134" />
			<path d="M266 526 L290 550" />
			<path d="M290 110 L266 134" />
			<path d="M134 526 L110 550" />
		</g>

		<g fill="#1b3d34">
			<circle cx="200" cy="56" r="5" />
			<circle cx="200" cy="604" r="5" />
			<circle cx="56" cy="330" r="5" />
			<circle cx="344" cy="330" r="5" />
		</g>

		<rect x="52" y="618" width="296" height="34" fill="#efe4d2" stroke="#1e1e1e" stroke-width="2" />
		<text
			x="200"
			y="641"
			text-anchor="middle"
			font-family="Georgia, 'Noto Serif', serif"
			font-size="18"
			font-weight="700"
			letter-spacing="0.18em"
			fill="#1e1e1e"
		>
			TANLABS TAROT
		</text>
	</g>
</svg>
